<svg width="8.25rem" height="5.8125rem" viewBox="0 0 132 93" fill="none" xmlns="http://www.w3.org/2000/svg">
<path d="M40.7287 8V0.709999H42.5107C43.1287 0.709999 43.6087 0.790999 43.9507 0.953C44.2987 1.109 44.5447 1.358 44.6887 1.7C44.8327 2.036 44.9047 2.468 44.9047 2.996V5.651C44.9047 6.191 44.8327 6.635 44.6887 6.983C44.5447 7.331 44.3017 7.589 43.9597 7.757C43.6237 7.919 43.1527 8 42.5467 8H40.7287ZM42.2137 6.965H42.5287C42.8047 6.965 42.9997 6.923 43.1137 6.839C43.2337 6.749 43.3087 6.62 43.3387 6.452C43.3687 6.278 43.3837 6.065 43.3837 5.813V2.807C43.3837 2.555 43.3627 2.354 43.3207 2.204C43.2847 2.048 43.2067 1.934 43.0867 1.862C42.9727 1.79 42.7837 1.754 42.5197 1.754H42.2137V6.965ZM47.7779 8.099C47.3279 8.099 46.9529 8.018 46.6529 7.856C46.3529 7.688 46.1249 7.439 45.9689 7.109C45.8189 6.773 45.7319 6.347 45.7079 5.831L46.9859 5.615C46.9979 5.915 47.0279 6.167 47.0759 6.371C47.1299 6.569 47.2079 6.719 47.3099 6.821C47.4179 6.917 47.5499 6.965 47.7059 6.965C47.8979 6.965 48.0269 6.905 48.0929 6.785C48.1649 6.665 48.2009 6.527 48.2009 6.371C48.2009 6.065 48.1259 5.81 47.9759 5.606C47.8319 5.396 47.6399 5.186 47.3999 4.976L46.6439 4.319C46.3739 4.091 46.1519 3.833 45.9779 3.545C45.8099 3.257 45.7259 2.903 45.7259 2.483C45.7259 1.883 45.8999 1.424 46.2479 1.106C46.6019 0.782 47.0849 0.62 47.6969 0.62C48.0629 0.62 48.3629 0.68 48.5969 0.8C48.8309 0.92 49.0109 1.082 49.1369 1.286C49.2689 1.484 49.3589 1.703 49.4069 1.943C49.4609 2.177 49.4939 2.411 49.5059 2.645L48.2369 2.834C48.2249 2.612 48.2039 2.417 48.1739 2.249C48.1499 2.081 48.0959 1.949 48.0119 1.853C47.9339 1.757 47.8139 1.709 47.6519 1.709C47.4779 1.709 47.3489 1.775 47.2649 1.907C47.1809 2.033 47.1389 2.174 47.1389 2.33C47.1389 2.588 47.1959 2.801 47.3099 2.969C47.4299 3.131 47.5919 3.302 47.7959 3.482L48.5339 4.13C48.8399 4.394 49.1009 4.697 49.3169 5.039C49.5389 5.375 49.6499 5.792 49.6499 6.29C49.6499 6.632 49.5719 6.941 49.4159 7.217C49.2599 7.493 49.0409 7.709 48.7589 7.865C48.4829 8.021 48.1559 8.099 47.7779 8.099Z" fill="white"/>
<path d="M57.1797 7.5H65.4297V3H66.1797V7.5H69.1797V3H69.9297V7.5H72.9297V3H73.6797V7.5H72.9297H76.6797V3H77.4297V7.5H81.1797H96.1797V9H57.1797V7.5Z" fill="#83899C"/>
<rect x="0.179688" y="45" width="131" height="48" rx="2" fill="black" fill-opacity="0.05"/>
<rect x="0.679688" y="45.5" width="130" height="47" rx="1.5" stroke="#393C45" stroke-opacity="0.24"/>
<path d="M82.6797 89.0134H83.3539L85.1797 90V86L83.3539 86.9866H82.6797C82.4039 86.9866 82.1797 87.1684 82.1797 87.392V88.608C82.1797 88.8316 82.4039 89.0134 82.6797 89.0134Z" fill="#4271FF"/>
<path d="M0.179688 91H1.17969C1.17969 91.5523 1.6274 92 2.17969 92H8.42969V87H9.17969V92H12.1797V87H12.9297V92H15.9297V87H16.6797V92H15.9297H19.6797V87H20.4297V92H24.1797H20.6797V93H2.17969C1.07512 93 0.179688 92.1046 0.179688 91Z" fill="#83899C"/>
<path d="M36.1797 92.5V92H41.1797H34.9297V89.5H34.1797V92H31.1797V89.5H30.4297V92H27.4297V89.5H26.6797V92H27.4297H23.6797V89.5H22.9297V92H19.1797H20.6797V93H36.1797V92.5Z" fill="#83899C"/>
<path d="M51.1797 92.5V92H56.1797H49.9297V89.5H49.1797V92H46.1797V89.5H45.4297V92H42.4297V89.5H41.6797V92H42.4297H38.6797V89.5H37.9297V92H34.1797H35.6797V93H51.1797V92.5Z" fill="#83899C"/>
<path d="M66.1797 92.5V92H71.1797H64.9297V89.5H64.1797V92H61.1797V89.5H60.4297V92H57.4297V89.5H56.6797V92H57.4297H53.6797V89.5H52.9297V92H49.1797H50.6797V93H66.1797V92.5Z" fill="#FF6969"/>
<path d="M87.1997 90L86.2947 85.95H86.8247L87.4647 88.935L88.0747 85.95H88.5897L87.6947 90H87.1997ZM90.015 90.045C89.7417 90.045 89.5234 89.9917 89.36 89.885C89.1967 89.7783 89.08 89.6267 89.01 89.43C88.94 89.23 88.905 88.9967 88.905 88.73V87.195C88.905 86.9283 88.94 86.7 89.01 86.51C89.0834 86.3167 89.2 86.17 89.36 86.07C89.5234 85.9667 89.7417 85.915 90.015 85.915C90.2884 85.915 90.505 85.9667 90.665 86.07C90.825 86.1733 90.94 86.32 91.01 86.51C91.0834 86.7 91.12 86.9283 91.12 87.195V88.735C91.12 88.9983 91.0834 89.2283 91.01 89.425C90.94 89.6217 90.825 89.775 90.665 89.885C90.505 89.9917 90.2884 90.045 90.015 90.045ZM90.015 89.6C90.165 89.6 90.2784 89.57 90.355 89.51C90.4317 89.4467 90.4834 89.36 90.51 89.25C90.5367 89.1367 90.55 89.005 90.55 88.855V87.08C90.55 86.93 90.5367 86.8017 90.51 86.695C90.4834 86.585 90.4317 86.5017 90.355 86.445C90.2784 86.385 90.165 86.355 90.015 86.355C89.865 86.355 89.75 86.385 89.67 86.445C89.5934 86.5017 89.5417 86.585 89.515 86.695C89.4884 86.8017 89.475 86.93 89.475 87.08V88.855C89.475 89.005 89.4884 89.1367 89.515 89.25C89.5417 89.36 89.5934 89.4467 89.67 89.51C89.75 89.57 89.865 89.6 90.015 89.6ZM91.6754 90V85.95H92.2404V89.595H93.2754V90H91.6754Z" fill="#4271FF"/>
<rect x="95.1797" y="87" width="31" height="2" fill="#393C45"/>
<rect x="0.179688" y="76" width="6" height="6" fill="#393C45"/>
<path d="M2.25569 81L2.94369 77.76H3.37969L4.07169 81H3.64369L3.49569 80.184H2.83569L2.67969 81H2.25569ZM2.89569 79.86H3.43569L3.16369 78.4L2.89569 79.86Z" fill="#C9D4F4"/>
<rect x="101.441" y="51.2609" width="23.4783" height="6.47826" rx="0.782609" stroke="black" stroke-width="0.521739"/>
<path d="M7.66769 58V51.52H10.3877V52.352H8.85169V54.216H10.0597V55.04H8.85169V57.184H10.4037V58H7.66769ZM11.0896 58V51.52H11.9136L13.4896 55.216V51.52H14.4656V58H13.6816L12.0976 54.128V58H11.0896ZM16.0969 58V52.392H15.0649V51.52H18.2969V52.392H17.2809V58H16.0969ZM18.8864 58V51.52H21.6064V52.352H20.0704V54.216H21.2784V55.04H20.0704V57.184H21.6224V58H18.8864ZM22.3083 58V51.52H23.8603C24.2976 51.52 24.6656 51.5733 24.9643 51.68C25.2683 51.7813 25.4976 51.9573 25.6523 52.208C25.8123 52.4587 25.8923 52.8 25.8923 53.232C25.8923 53.4933 25.8683 53.728 25.8203 53.936C25.7723 54.144 25.6896 54.3227 25.5723 54.472C25.4603 54.616 25.303 54.728 25.1003 54.808L26.0043 58H24.8203L24.0363 55.032H23.4923V58H22.3083ZM23.4923 54.288H23.8603C24.0896 54.288 24.271 54.256 24.4043 54.192C24.543 54.1227 24.6416 54.016 24.7003 53.872C24.759 53.7227 24.7883 53.5333 24.7883 53.304C24.7883 52.9787 24.727 52.736 24.6043 52.576C24.487 52.4107 24.2603 52.328 23.9243 52.328H23.4923V54.288ZM28.738 58V51.52H31.402V52.336H29.922V54.224H31.13V55.048H29.922V58H28.738ZM32.0427 58V51.52H33.5947C34.032 51.52 34.4 51.5733 34.6987 51.68C35.0027 51.7813 35.232 51.9573 35.3867 52.208C35.5467 52.4587 35.6267 52.8 35.6267 53.232C35.6267 53.4933 35.6027 53.728 35.5547 53.936C35.5067 54.144 35.424 54.3227 35.3067 54.472C35.1947 54.616 35.0374 54.728 34.8347 54.808L35.7387 58H34.5547L33.7707 55.032H33.2267V58H32.0427ZM33.2267 54.288H33.5947C33.824 54.288 34.0054 54.256 34.1387 54.192C34.2774 54.1227 34.376 54.016 34.4347 53.872C34.4934 53.7227 34.5227 53.5333 34.5227 53.304C34.5227 52.9787 34.4614 52.736 34.3387 52.576C34.2214 52.4107 33.9947 52.328 33.6587 52.328H33.2267V54.288ZM36.5271 58V51.52H39.2471V52.352H37.7111V54.216H38.9191V55.04H37.7111V57.184H39.2631V58H36.5271ZM43.1089 59.288C42.9756 59.224 42.8316 59.128 42.6769 59C42.5276 58.872 42.3783 58.7253 42.2289 58.56C42.0849 58.4 41.9596 58.24 41.8529 58.08C41.8316 58.0853 41.8076 58.088 41.7809 58.088C41.7596 58.088 41.7356 58.088 41.7089 58.088C41.2503 58.088 40.8849 58.0027 40.6129 57.832C40.3409 57.6613 40.1463 57.416 40.0289 57.096C39.9116 56.776 39.8529 56.3973 39.8529 55.96V53.536C39.8529 53.0987 39.9116 52.7253 40.0289 52.416C40.1463 52.1013 40.3409 51.8613 40.6129 51.696C40.8849 51.5307 41.2503 51.448 41.7089 51.448C42.1783 51.448 42.5489 51.5307 42.8209 51.696C43.0929 51.8613 43.2876 52.1013 43.4049 52.416C43.5223 52.7253 43.5809 53.0987 43.5809 53.536V55.968C43.5809 56.2773 43.5516 56.5573 43.4929 56.808C43.4343 57.0587 43.3383 57.2773 43.2049 57.464C43.0716 57.6453 42.8956 57.7867 42.6769 57.888C42.7463 57.9627 42.8183 58.04 42.8929 58.12C42.9676 58.2 43.0423 58.2747 43.1169 58.344C43.1916 58.4133 43.2636 58.4693 43.3329 58.512L43.1089 59.288ZM41.7089 57.216C41.9063 57.216 42.0529 57.1733 42.1489 57.088C42.2449 57.0027 42.3089 56.8853 42.3409 56.736C42.3729 56.5867 42.3889 56.424 42.3889 56.248V53.264C42.3889 53.0827 42.3729 52.92 42.3409 52.776C42.3089 52.632 42.2449 52.52 42.1489 52.44C42.0529 52.3547 41.9063 52.312 41.7089 52.312C41.5169 52.312 41.3729 52.3547 41.2769 52.44C41.1809 52.52 41.1169 52.632 41.0849 52.776C41.0583 52.92 41.0449 53.0827 41.0449 53.264V56.248C41.0449 56.424 41.0583 56.5867 41.0849 56.736C41.1169 56.8853 41.1809 57.0027 41.2769 57.088C41.3729 57.1733 41.5169 57.216 41.7089 57.216ZM46.2406 58.088C45.7606 58.088 45.3872 58 45.1206 57.824C44.8539 57.648 44.6699 57.3973 44.5686 57.072C44.4672 56.7467 44.4166 56.3573 44.4166 55.904V51.52H45.5686V56.04C45.5686 56.2427 45.5819 56.4347 45.6086 56.616C45.6352 56.792 45.6966 56.936 45.7926 57.048C45.8939 57.1547 46.0432 57.208 46.2406 57.208C46.4486 57.208 46.5979 57.1547 46.6886 57.048C46.7846 56.936 46.8459 56.792 46.8726 56.616C46.9046 56.4347 46.9206 56.2427 46.9206 56.04V51.52H48.0646V55.904C48.0646 56.3573 48.0139 56.7467 47.9126 57.072C47.8112 57.3973 47.6272 57.648 47.3606 57.824C47.0992 58 46.7259 58.088 46.2406 58.088ZM48.9958 58V51.52H51.7158V52.352H50.1798V54.216H51.3878V55.04H50.1798V57.184H51.7318V58H48.9958ZM52.4177 58V51.52H53.2417L54.8177 55.216V51.52H55.7937V58H55.0097L53.4257 54.128V58H52.4177ZM58.5211 58.088C58.0464 58.088 57.6731 57.9947 57.4011 57.808C57.1344 57.6213 56.9477 57.368 56.8411 57.048C56.7344 56.7227 56.6811 56.3493 56.6811 55.928V53.616C56.6811 53.1733 56.7344 52.7893 56.8411 52.464C56.9477 52.1387 57.1344 51.888 57.4011 51.712C57.6731 51.536 58.0464 51.448 58.5211 51.448C58.9691 51.448 59.3184 51.5253 59.5691 51.68C59.8251 51.8293 60.0064 52.0453 60.1131 52.328C60.2197 52.6107 60.2731 52.9387 60.2731 53.312V53.856H59.1371V53.296C59.1371 53.1147 59.1264 52.9493 59.1051 52.8C59.0891 52.6507 59.0384 52.5333 58.9531 52.448C58.8731 52.3573 58.7317 52.312 58.5291 52.312C58.3264 52.312 58.1771 52.36 58.0811 52.456C57.9904 52.5467 57.9317 52.672 57.9051 52.832C57.8784 52.9867 57.8651 53.1627 57.8651 53.36V56.176C57.8651 56.4107 57.8837 56.6053 57.9211 56.76C57.9584 56.9093 58.0251 57.024 58.1211 57.104C58.2224 57.1787 58.3584 57.216 58.5291 57.216C58.7264 57.216 58.8651 57.1707 58.9451 57.08C59.0304 56.984 59.0837 56.8587 59.1051 56.704C59.1264 56.5493 59.1371 56.376 59.1371 56.184V55.6H60.2731V56.12C60.2731 56.504 60.2224 56.8453 60.1211 57.144C60.0197 57.4373 59.8411 57.6693 59.5851 57.84C59.3344 58.0053 58.9797 58.088 58.5211 58.088ZM61.9858 58V55.528L60.6738 51.52H61.7778L62.5778 54.088L63.3298 51.52H64.4098L63.1138 55.528V58H61.9858Z" fill="#393C45" fill-opacity="0.62"/>
<path d="M103.522 56.0435V52.6626H104.332C104.56 52.6626 104.752 52.6904 104.908 52.7461C105.067 52.7989 105.186 52.8908 105.267 53.0215C105.35 53.1523 105.392 53.3304 105.392 53.5558C105.392 53.6922 105.38 53.8146 105.355 53.9231C105.329 54.0316 105.286 54.1248 105.225 54.2028C105.167 54.2779 105.085 54.3363 104.979 54.3781L105.451 56.0435H104.833L104.424 54.4949H104.14V56.0435H103.522ZM104.14 54.1068H104.332C104.452 54.1068 104.546 54.0901 104.616 54.0567C104.688 54.0205 104.74 53.9648 104.77 53.8897C104.801 53.8118 104.816 53.713 104.816 53.5934C104.816 53.4236 104.784 53.297 104.72 53.2135C104.659 53.1273 104.541 53.0842 104.365 53.0842H104.14V54.1068ZM106.15 56.1269V55.6928C106.239 55.6928 106.313 55.6873 106.371 55.6762C106.43 55.665 106.474 55.6455 106.505 55.6177C106.538 55.5871 106.562 55.544 106.576 55.4883C106.59 55.4299 106.596 55.3562 106.596 55.2671V52.6626H107.21V55.2922C107.21 55.4814 107.188 55.6386 107.143 55.7638C107.099 55.8862 107.021 55.9781 106.91 56.0393C106.801 56.0977 106.647 56.1269 106.446 56.1269H106.15ZM109.143 56.0894C108.904 56.0894 108.713 56.0448 108.571 55.9558C108.43 55.8668 108.328 55.7388 108.267 55.5718C108.206 55.4048 108.175 55.2073 108.175 54.9791V53.7144C108.175 53.4862 108.206 53.2915 108.267 53.1301C108.328 52.9659 108.43 52.8407 108.571 52.7544C108.713 52.6682 108.904 52.625 109.143 52.625C109.388 52.625 109.58 52.6682 109.719 52.7544C109.861 52.8407 109.963 52.9659 110.024 53.1301C110.088 53.2915 110.12 53.4862 110.12 53.7144V54.9833C110.12 55.2087 110.088 55.4048 110.024 55.5718C109.963 55.736 109.861 55.864 109.719 55.9558C109.58 56.0448 109.388 56.0894 109.143 56.0894ZM109.143 55.6344C109.246 55.6344 109.321 55.6122 109.369 55.5676C109.419 55.5231 109.452 55.4619 109.469 55.384C109.486 55.3061 109.494 55.2212 109.494 55.1294V53.5725C109.494 53.4779 109.486 53.393 109.469 53.3179C109.452 53.2428 109.419 53.1843 109.369 53.1426C109.321 53.0981 109.246 53.0758 109.143 53.0758C109.046 53.0758 108.972 53.0981 108.922 53.1426C108.872 53.1843 108.839 53.2428 108.822 53.3179C108.805 53.393 108.797 53.4779 108.797 53.5725V55.1294C108.797 55.2212 108.804 55.3061 108.818 55.384C108.834 55.4619 108.868 55.5231 108.918 55.5676C108.968 55.6122 109.043 55.6344 109.143 55.6344ZM111.517 56.0435V54.7537L110.832 52.6626H111.408L111.826 54.0024L112.218 52.6626H112.782L112.105 54.7537V56.0435H111.517ZM113.476 56.0435L114.452 52.6626H114.828L113.851 56.0435H113.476ZM116.207 56.0435V54.7537L115.523 52.6626H116.099L116.516 54.0024L116.909 52.6626H117.472L116.796 54.7537V56.0435H116.207ZM119.156 56.0894C118.917 56.0894 118.726 56.0448 118.584 55.9558C118.443 55.8668 118.341 55.7388 118.28 55.5718C118.219 55.4048 118.188 55.2073 118.188 54.9791V53.7144C118.188 53.4862 118.219 53.2915 118.28 53.1301C118.341 52.9659 118.443 52.8407 118.584 52.7544C118.726 52.6682 118.917 52.625 119.156 52.625C119.401 52.625 119.593 52.6682 119.732 52.7544C119.874 52.8407 119.976 52.9659 120.037 53.1301C120.101 53.2915 120.133 53.4862 120.133 53.7144V54.9833C120.133 55.2087 120.101 55.4048 120.037 55.5718C119.976 55.736 119.874 55.864 119.732 55.9558C119.593 56.0448 119.401 56.0894 119.156 56.0894ZM119.156 55.6344C119.259 55.6344 119.334 55.6122 119.382 55.5676C119.432 55.5231 119.465 55.4619 119.482 55.384C119.499 55.3061 119.507 55.2212 119.507 55.1294V53.5725C119.507 53.4779 119.499 53.393 119.482 53.3179C119.465 53.2428 119.432 53.1843 119.382 53.1426C119.334 53.0981 119.259 53.0758 119.156 53.0758C119.059 53.0758 118.985 53.0981 118.935 53.1426C118.885 53.1843 118.852 53.2428 118.835 53.3179C118.818 53.393 118.81 53.4779 118.81 53.5725V55.1294C118.81 55.2212 118.817 55.3061 118.831 55.384C118.847 55.4619 118.881 55.5231 118.931 55.5676C118.981 55.6122 119.056 55.6344 119.156 55.6344ZM121.091 56.0435V52.6626H122.51V53.0967H121.709V54.0692H122.339V54.4991H121.709V55.6177H122.518V56.0435H121.091Z" fill="#393C45"/>
<path d="M89.9357 33V23.28H91.9157V27.276H93.6317V23.28H95.6117V33H93.6317V28.692H91.9157V33H89.9357Z" fill="#393C45"/>
<path d="M124.912 33V23.28H127.432C128.088 23.28 128.648 23.356 129.112 23.508C129.584 23.652 129.944 23.912 130.192 24.288C130.448 24.664 130.576 25.184 130.576 25.848C130.576 26.248 130.54 26.604 130.468 26.916C130.404 27.22 130.284 27.488 130.108 27.72C129.94 27.944 129.7 28.124 129.388 28.26L130.732 33H128.704L127.588 28.596H126.892V33H124.912ZM126.892 27.42H127.468C127.788 27.42 128.04 27.368 128.224 27.264C128.408 27.16 128.536 27.004 128.608 26.796C128.688 26.58 128.728 26.316 128.728 26.004C128.728 25.556 128.644 25.216 128.476 24.984C128.316 24.744 128.012 24.624 127.564 24.624H126.892V27.42Z" fill="#393C45"/>
<path d="M104.764 32L103.378 24.71H104.665L105.529 29.75L106.339 24.71H107.68L106.294 32H104.764ZM108.431 32V24.71H111.509V25.718H109.916V27.689H111.266V28.724H109.916V32H108.431ZM114.288 32.099C113.754 32.099 113.331 32.003 113.019 31.811C112.707 31.619 112.482 31.346 112.344 30.992C112.212 30.632 112.146 30.203 112.146 29.705V26.987C112.146 26.489 112.212 26.063 112.344 25.709C112.482 25.355 112.707 25.085 113.019 24.899C113.331 24.713 113.754 24.62 114.288 24.62C114.828 24.62 115.254 24.716 115.566 24.908C115.884 25.094 116.109 25.364 116.241 25.718C116.379 26.066 116.448 26.489 116.448 26.987V29.705C116.448 30.203 116.379 30.632 116.241 30.992C116.109 31.346 115.884 31.619 115.566 31.811C115.254 32.003 114.828 32.099 114.288 32.099ZM114.288 31.028C114.48 31.028 114.621 30.986 114.711 30.902C114.801 30.812 114.861 30.695 114.891 30.551C114.921 30.401 114.936 30.242 114.936 30.074V26.627C114.936 26.459 114.921 26.303 114.891 26.159C114.861 26.015 114.801 25.901 114.711 25.817C114.621 25.727 114.48 25.682 114.288 25.682C114.108 25.682 113.973 25.727 113.883 25.817C113.793 25.901 113.733 26.015 113.703 26.159C113.673 26.303 113.658 26.459 113.658 26.627V30.074C113.658 30.242 113.67 30.401 113.694 30.551C113.724 30.695 113.784 30.812 113.874 30.902C113.964 30.986 114.102 31.028 114.288 31.028Z" fill="#696F82"/>
<path d="M72.847 31.3334H74.645L79.5137 34.5787V21.4214L74.645 24.6667H72.847C72.1117 24.6667 71.5137 25.2647 71.5137 26.0001V30.0001C71.5137 30.7354 72.1117 31.3334 72.847 31.3334Z" fill="#393C45"/>
<rect x="6.67969" y="0.5" width="17" height="8" rx="1.5" stroke="#393C45"/>
<rect x="27.6797" y="0.5" width="8" height="8" rx="4" fill="#393C45" stroke="#393C45"/>
<g clip-path="url(#clip0_32_151)">
<path fill-rule="evenodd" clip-rule="evenodd" d="M29.5957 4.49996C29.5957 4.58017 29.6607 4.64538 29.7411 4.64538H30.1353C30.1692 5.00477 30.3274 5.34108 30.5827 5.59633C30.8379 5.85159 31.1742 6.00981 31.5336 6.04371V6.43788C31.5336 6.47644 31.5489 6.51343 31.5762 6.5407C31.6035 6.56797 31.6405 6.58329 31.679 6.58329C31.7176 6.58329 31.7546 6.56797 31.7819 6.5407C31.8091 6.51343 31.8245 6.47644 31.8245 6.43788V6.04371C32.1838 6.00981 32.5202 5.85159 32.7754 5.59633C33.0307 5.34108 33.1889 5.00477 33.2228 4.64538H33.617C33.6555 4.64538 33.6925 4.63006 33.7198 4.60278C33.747 4.57551 33.7624 4.53853 33.7624 4.49996C33.7624 4.46139 33.747 4.42441 33.7198 4.39713C33.6925 4.36986 33.6555 4.35454 33.617 4.35454H33.2228C33.1889 3.99515 33.0307 3.65884 32.7754 3.40358C32.5202 3.14833 32.1838 2.99011 31.8245 2.95621V2.56204C31.8245 2.52348 31.8091 2.48649 31.7819 2.45922C31.7546 2.43195 31.7176 2.41663 31.679 2.41663C31.6405 2.41663 31.6035 2.43195 31.5762 2.45922C31.5489 2.48649 31.5336 2.52348 31.5336 2.56204V2.95621C31.1742 2.99011 30.8379 3.14833 30.5827 3.40358C30.3274 3.65884 30.1692 3.99515 30.1353 4.35454H29.7411C29.7026 4.35454 29.6656 4.36986 29.6383 4.39713C29.611 4.42441 29.5957 4.46139 29.5957 4.49996ZM30.9524 4.49996C30.9524 4.30724 31.0289 4.1224 31.1652 3.98613C31.3015 3.84985 31.4863 3.77329 31.679 3.77329C31.8718 3.77329 32.0566 3.84985 32.1929 3.98613C32.3291 4.1224 32.4057 4.30724 32.4057 4.49996C32.4057 4.69268 32.3291 4.87751 32.1929 5.01379C32.0566 5.15007 31.8718 5.22663 31.679 5.22663C31.4863 5.22663 31.3015 5.15007 31.1652 5.01379C31.0289 4.87751 30.9524 4.69268 30.9524 4.49996Z" fill="#C4CFEE"/>
<path d="M31.2422 4.50001C31.2422 4.38436 31.2881 4.27345 31.3699 4.19168C31.4517 4.1099 31.5626 4.06396 31.6782 4.06396C31.7939 4.06396 31.9048 4.1099 31.9866 4.19168C32.0683 4.27345 32.1143 4.38436 32.1143 4.50001C32.1143 4.61565 32.0683 4.72656 31.9866 4.80833C31.9048 4.89011 31.7939 4.93605 31.6782 4.93605C31.5626 4.93605 31.4517 4.89011 31.3699 4.80833C31.2881 4.72656 31.2422 4.61565 31.2422 4.50001Z" fill="#C4CFEE"/>
</g>
<path d="M11.7877 7.072C11.4597 7.072 11.1997 7.004 11.0077 6.868C10.8157 6.728 10.6777 6.532 10.5937 6.28C10.5137 6.024 10.4737 5.728 10.4737 5.392V3.766C10.4737 3.418 10.5157 3.118 10.5997 2.866C10.6837 2.614 10.8297 2.42 11.0377 2.284C11.2497 2.148 11.5357 2.08 11.8957 2.08C12.2437 2.08 12.5177 2.138 12.7177 2.254C12.9217 2.37 13.0677 2.534 13.1557 2.746C13.2437 2.958 13.2877 3.21 13.2877 3.502V3.784H12.3217V3.442C12.3217 3.314 12.3137 3.202 12.2977 3.106C12.2817 3.006 12.2437 2.928 12.1837 2.872C12.1277 2.816 12.0357 2.788 11.9077 2.788C11.7757 2.788 11.6797 2.822 11.6197 2.89C11.5597 2.958 11.5217 3.046 11.5057 3.154C11.4897 3.258 11.4817 3.37 11.4817 3.49V5.644C11.4817 5.78 11.4937 5.902 11.5177 6.01C11.5417 6.118 11.5857 6.202 11.6497 6.262C11.7177 6.322 11.8137 6.352 11.9377 6.352C12.0617 6.352 12.1577 6.32 12.2257 6.256C12.2937 6.192 12.3397 6.106 12.3637 5.998C12.3917 5.886 12.4057 5.76 12.4057 5.62V5.104H11.9317V4.504H13.2997V7H12.6517L12.5917 6.562C12.5277 6.71 12.4317 6.832 12.3037 6.928C12.1757 7.024 12.0037 7.072 11.7877 7.072ZM13.9793 7V2.14H15.5213C15.8133 2.14 16.0513 2.196 16.2353 2.308C16.4193 2.416 16.5553 2.574 16.6433 2.782C16.7353 2.99 16.7813 3.242 16.7813 3.538C16.7813 3.886 16.7213 4.158 16.6013 4.354C16.4853 4.55 16.3253 4.69 16.1213 4.774C15.9173 4.854 15.6833 4.894 15.4193 4.894H14.9693V7H13.9793ZM14.9693 4.198H15.3173C15.4613 4.198 15.5713 4.176 15.6473 4.132C15.7273 4.084 15.7813 4.01 15.8093 3.91C15.8373 3.81 15.8513 3.682 15.8513 3.526C15.8513 3.378 15.8393 3.254 15.8153 3.154C15.7953 3.054 15.7473 2.976 15.6713 2.92C15.5953 2.864 15.4753 2.836 15.3113 2.836H14.9693V4.198ZM18.5147 7.066C18.2147 7.066 17.9647 7.012 17.7647 6.904C17.5647 6.792 17.4127 6.626 17.3087 6.406C17.2087 6.182 17.1507 5.898 17.1347 5.554L17.9867 5.41C17.9947 5.61 18.0147 5.778 18.0467 5.914C18.0827 6.046 18.1347 6.146 18.2027 6.214C18.2747 6.278 18.3627 6.31 18.4667 6.31C18.5947 6.31 18.6807 6.27 18.7247 6.19C18.7727 6.11 18.7967 6.018 18.7967 5.914C18.7967 5.71 18.7467 5.54 18.6467 5.404C18.5507 5.264 18.4227 5.124 18.2627 4.984L17.7587 4.546C17.5787 4.394 17.4307 4.222 17.3147 4.03C17.2027 3.838 17.1467 3.602 17.1467 3.322C17.1467 2.922 17.2627 2.616 17.4947 2.404C17.7307 2.188 18.0527 2.08 18.4607 2.08C18.7047 2.08 18.9047 2.12 19.0607 2.2C19.2167 2.28 19.3367 2.388 19.4207 2.524C19.5087 2.656 19.5687 2.802 19.6007 2.962C19.6367 3.118 19.6587 3.274 19.6667 3.43L18.8207 3.556C18.8127 3.408 18.7987 3.278 18.7787 3.166C18.7627 3.054 18.7267 2.966 18.6707 2.902C18.6187 2.838 18.5387 2.806 18.4307 2.806C18.3147 2.806 18.2287 2.85 18.1727 2.938C18.1167 3.022 18.0887 3.116 18.0887 3.22C18.0887 3.392 18.1267 3.534 18.2027 3.646C18.2827 3.754 18.3907 3.868 18.5267 3.988L19.0187 4.42C19.2227 4.596 19.3967 4.798 19.5407 5.026C19.6887 5.25 19.7627 5.528 19.7627 5.86C19.7627 6.088 19.7107 6.294 19.6067 6.478C19.5027 6.662 19.3567 6.806 19.1687 6.91C18.9847 7.014 18.7667 7.066 18.5147 7.066Z" fill="#4A4E59"/>
<path d="M110.38 2V0.5H124.68V8.5H110.38V7V6.5H109.88H108.68V4.5V2.5H109.88H110.38V2Z" stroke="#393C45"/>
<rect x="120.18" y="2" width="3" height="5" fill="#393C45"/>
<rect x="116.18" y="2" width="3" height="5" fill="#393C45"/>
<rect x="112.18" y="2" width="3" height="5" fill="#393C45"/>
<defs>
<clipPath id="clip0_32_151">
<rect width="5" height="5" fill="white" transform="translate(29.1797 2)"/>
</clipPath>
</defs>
</svg>
