<svg width="66" height="62" viewBox="0 0 66 62" fill="none" xmlns="http://www.w3.org/2000/svg">
<g filter="url(#filter0_d_31_208)">
<path d="M61.523 3.54627C61.8645 1.70194 60.4488 0 58.5731 0H7.67969C6.02283 0 4.67969 1.34315 4.67969 3V51C4.67969 52.6569 6.02283 54 7.67969 54H49.6842C51.1304 54 52.3707 52.9683 52.6341 51.5463L61.523 3.54627Z" fill="#393C45"/>
<path d="M61.0313 3.45523C61.3159 1.91829 60.1362 0.5 58.5731 0.5H7.67969C6.29898 0.5 5.17969 1.61929 5.17969 3V51C5.17969 52.3807 6.29898 53.5 7.67969 53.5H49.6842C50.8894 53.5 51.923 52.6402 52.1424 51.4552L61.0313 3.45523Z" stroke="#393C45" stroke-opacity="0.09"/>
</g>
<path d="M38.4672 28.25C36.5575 28.25 34.667 27.8375 32.7958 27.0125C30.9245 26.1875 29.2247 25.0111 27.6964 23.4833C26.1686 21.9556 24.9922 20.2597 24.1672 18.3958C23.3422 16.5319 22.9297 14.6375 22.9297 12.7125V11.75H28.338L29.1859 16.3562L26.5734 18.9917C26.9095 19.5875 27.2839 20.1528 27.6964 20.6875C28.1089 21.2222 28.5519 21.7188 29.0255 22.1771C29.4686 22.6201 29.9538 23.0442 30.4812 23.4494C31.0086 23.8546 31.5775 24.2326 32.188 24.5833L34.8464 21.925L39.4297 22.8646V28.25H38.4672Z" fill="#C9D4F4"/>
<path d="M22.8547 43.072C22.4167 43.072 22.0327 42.991 21.7027 42.829C21.3727 42.661 21.1177 42.427 20.9377 42.127C20.7577 41.827 20.6677 41.479 20.6677 41.083V40.48C20.6677 40.45 20.6767 40.426 20.6947 40.408C20.7187 40.384 20.7457 40.372 20.7757 40.372H21.6037C21.6337 40.372 21.6577 40.384 21.6757 40.408C21.6997 40.426 21.7117 40.45 21.7117 40.48V41.083C21.7117 41.407 21.8137 41.671 22.0177 41.875C22.2277 42.073 22.5067 42.172 22.8547 42.172C23.1907 42.172 23.4667 42.073 23.6827 41.875C23.8987 41.671 24.0067 41.407 24.0067 41.083V36.808C24.0067 36.778 24.0157 36.754 24.0337 36.736C24.0577 36.712 24.0847 36.7 24.1147 36.7H24.9337C24.9637 36.7 24.9877 36.712 25.0057 36.736C25.0297 36.754 25.0417 36.778 25.0417 36.808V41.083C25.0417 41.479 24.9487 41.827 24.7627 42.127C24.5827 42.427 24.3247 42.661 23.9887 42.829C23.6587 42.991 23.2807 43.072 22.8547 43.072ZM28.2102 43.072C27.7362 43.072 27.3282 42.952 26.9862 42.712C26.6502 42.472 26.4132 42.139 26.2752 41.713C26.1732 41.389 26.1222 41.047 26.1222 40.687C26.1222 40.303 26.1702 39.961 26.2662 39.661C26.4042 39.241 26.6442 38.914 26.9862 38.68C27.3282 38.446 27.7392 38.329 28.2192 38.329C28.6752 38.329 29.0682 38.446 29.3982 38.68C29.7342 38.914 29.9712 39.238 30.1092 39.652C30.2172 39.94 30.2712 40.282 30.2712 40.678C30.2712 41.056 30.2202 41.398 30.1182 41.704C29.9802 42.13 29.7432 42.466 29.4072 42.712C29.0712 42.952 28.6722 43.072 28.2102 43.072ZM28.2102 42.172C28.4322 42.172 28.6212 42.109 28.7772 41.983C28.9392 41.857 29.0562 41.68 29.1282 41.452C29.1882 41.254 29.2182 41.002 29.2182 40.696C29.2182 40.372 29.1882 40.12 29.1282 39.94C29.0622 39.712 28.9482 39.538 28.7862 39.418C28.6242 39.292 28.4262 39.229 28.1922 39.229C27.9702 39.229 27.7782 39.292 27.6162 39.418C27.4542 39.538 27.3372 39.712 27.2652 39.94C27.2052 40.15 27.1752 40.402 27.1752 40.696C27.1752 40.99 27.2052 41.242 27.2652 41.452C27.3312 41.68 27.4452 41.857 27.6072 41.983C27.7752 42.109 27.9762 42.172 28.2102 42.172ZM31.8522 37.771C31.6662 37.771 31.5132 37.711 31.3932 37.591C31.2732 37.471 31.2132 37.318 31.2132 37.132C31.2132 36.946 31.2732 36.793 31.3932 36.673C31.5132 36.553 31.6662 36.493 31.8522 36.493C32.0382 36.493 32.1912 36.553 32.3112 36.673C32.4312 36.793 32.4912 36.946 32.4912 37.132C32.4912 37.318 32.4312 37.471 32.3112 37.591C32.1912 37.711 32.0382 37.771 31.8522 37.771ZM31.4202 43C31.3902 43 31.3632 42.991 31.3392 42.973C31.3212 42.949 31.3122 42.922 31.3122 42.892V38.5C31.3122 38.47 31.3212 38.446 31.3392 38.428C31.3632 38.404 31.3902 38.392 31.4202 38.392H32.2482C32.2782 38.392 32.3022 38.404 32.3202 38.428C32.3442 38.446 32.3562 38.47 32.3562 38.5V42.892C32.3562 42.922 32.3442 42.949 32.3202 42.973C32.3022 42.991 32.2782 43 32.2482 43H31.4202ZM35.7571 38.329C36.2431 38.329 36.6301 38.473 36.9181 38.761C37.2121 39.049 37.3591 39.442 37.3591 39.94V42.892C37.3591 42.922 37.3471 42.949 37.3231 42.973C37.3051 42.991 37.2811 43 37.2511 43H36.4231C36.3931 43 36.3661 42.991 36.3421 42.973C36.3241 42.949 36.3151 42.922 36.3151 42.892V40.156C36.3151 39.88 36.2371 39.658 36.0811 39.49C35.9251 39.316 35.7181 39.229 35.4601 39.229C35.2021 39.229 34.9921 39.313 34.8301 39.481C34.6741 39.649 34.5961 39.871 34.5961 40.147V42.892C34.5961 42.922 34.5841 42.949 34.5601 42.973C34.5421 42.991 34.5181 43 34.4881 43H33.6601C33.6301 43 33.6031 42.991 33.5791 42.973C33.5611 42.949 33.5521 42.922 33.5521 42.892V38.509C33.5521 38.479 33.5611 38.455 33.5791 38.437C33.6031 38.413 33.6301 38.401 33.6601 38.401H34.4881C34.5181 38.401 34.5421 38.413 34.5601 38.437C34.5841 38.455 34.5961 38.479 34.5961 38.509V38.797C34.5961 38.815 34.6021 38.827 34.6141 38.833C34.6261 38.839 34.6351 38.833 34.6411 38.815C34.8871 38.491 35.2591 38.329 35.7571 38.329Z" fill="#C9D4F4"/>
<defs>
<filter id="filter0_d_31_208" x="0.679688" y="0" width="64.8945" height="62" filterUnits="userSpaceOnUse" color-interpolation-filters="sRGB">
<feFlood flood-opacity="0" result="BackgroundImageFix"/>
<feColorMatrix in="SourceAlpha" type="matrix" values="0 0 0 0 0 0 0 0 0 0 0 0 0 0 0 0 0 0 127 0" result="hardAlpha"/>
<feOffset dy="4"/>
<feGaussianBlur stdDeviation="2"/>
<feComposite in2="hardAlpha" operator="out"/>
<feColorMatrix type="matrix" values="0 0 0 0 0.223529 0 0 0 0 0.235294 0 0 0 0 0.270588 0 0 0 0.46 0"/>
<feBlend mode="normal" in2="BackgroundImageFix" result="effect1_dropShadow_31_208"/>
<feBlend mode="normal" in="SourceGraphic" in2="effect1_dropShadow_31_208" result="shape"/>
</filter>
</defs>
</svg>
