<svg width="9.125rem" height="11.1875rem" viewBox="0 0 146 179" fill="none" xmlns="http://www.w3.org/2000/svg">
<mask id="mask0_32_151" style="mask-type:alpha" maskUnits="userSpaceOnUse" x="0" y="0" width="146" height="179">
<path d="M5.17969 20C5.17969 12.8203 11 7 18.1797 7H128.18C135.359 7 141.18 12.8203 141.18 20V121.807C141.18 122.631 141.101 123.454 140.945 124.264L133.209 164.457C132.031 170.577 126.676 175 120.443 175H25.9161C19.6838 175 14.3284 170.577 13.1504 164.457L5.41401 124.264C5.25815 123.454 5.17969 122.631 5.17969 121.807V91V20Z" fill="#191919"/>
<path d="M17.1797 2C8.89542 2 2.17969 8.71573 2.17969 17V89.5V116.266C2.17969 120.285 2.5582 124.294 3.31021 128.242L10.2755 164.807C11.6232 171.882 17.8087 177 25.0106 177H120.349C127.551 177 133.736 171.882 135.084 164.807L141.29 132.229C142.547 125.629 143.18 118.926 143.18 112.207V17C143.18 8.71573 136.464 2 128.18 2H17.1797Z" fill="url(#paint0_linear_32_151)" stroke="url(#paint1_radial_32_151)" stroke-width="4"/>
</mask>
<g mask="url(#mask0_32_151)">
<path d="M5.17969 20C5.17969 12.8203 11 7 18.1797 7H128.18C135.359 7 141.18 12.8203 141.18 20V121.807C141.18 122.631 141.101 123.454 140.945 124.264L133.209 164.457C132.031 170.577 126.676 175 120.443 175H25.9161C19.6838 175 14.3284 170.577 13.1504 164.457L5.41401 124.264C5.25815 123.454 5.17969 122.631 5.17969 121.807V91V20Z" fill="#191919"/>
<g filter="url(#filter0_i_32_151)">
<path d="M4.17969 17C4.17969 9.8203 9.99999 4 17.1797 4H128.18C135.359 4 141.18 9.8203 141.18 17V112.207C141.18 118.8 140.559 125.378 139.325 131.855L133.119 164.433C131.951 170.564 126.59 175 120.349 175H25.0106C18.7689 175 13.4082 170.564 12.2402 164.433L5.27488 127.868C4.54637 124.043 4.17969 120.159 4.17969 116.266V89.5V17Z" fill="url(#paint2_linear_32_151)"/>
</g>
<path d="M17.1797 2C8.89542 2 2.17969 8.71573 2.17969 17V89.5V116.266C2.17969 120.285 2.5582 124.294 3.31021 128.242L10.2755 164.807C11.6232 171.882 17.8087 177 25.0106 177H120.349C127.551 177 133.736 171.882 135.084 164.807L141.29 132.229C142.547 125.629 143.18 118.926 143.18 112.207V17C143.18 8.71573 136.464 2 128.18 2H17.1797Z" stroke="url(#paint3_radial_32_151)" stroke-width="4"/>
<rect opacity="0.1" x="2.29688" y="99" width="148.379" height="201.372" transform="rotate(24.3781 2.29688 99)" fill="#393C45"/>
<rect opacity="0.2" x="26.1406" y="-193" width="148.379" height="201.372" transform="rotate(6.26093 26.1406 -193)" fill="#393C45"/>
</g>
<path d="M47.7287 18V10.71H49.5107C50.1287 10.71 50.6087 10.791 50.9507 10.953C51.2987 11.109 51.5447 11.358 51.6887 11.7C51.8327 12.036 51.9047 12.468 51.9047 12.996V15.651C51.9047 16.191 51.8327 16.635 51.6887 16.983C51.5447 17.331 51.3017 17.589 50.9597 17.757C50.6237 17.919 50.1527 18 49.5467 18H47.7287ZM49.2137 16.965H49.5287C49.8047 16.965 49.9997 16.923 50.1137 16.839C50.2337 16.749 50.3087 16.62 50.3387 16.452C50.3687 16.278 50.3837 16.065 50.3837 15.813V12.807C50.3837 12.555 50.3627 12.354 50.3207 12.204C50.2847 12.048 50.2067 11.934 50.0867 11.862C49.9727 11.79 49.7837 11.754 49.5197 11.754H49.2137V16.965ZM54.7779 18.099C54.3279 18.099 53.9529 18.018 53.6529 17.856C53.3529 17.688 53.1249 17.439 52.9689 17.109C52.8189 16.773 52.7319 16.347 52.7079 15.831L53.9859 15.615C53.9979 15.915 54.0279 16.167 54.0759 16.371C54.1299 16.569 54.2079 16.719 54.3099 16.821C54.4179 16.917 54.5499 16.965 54.7059 16.965C54.8979 16.965 55.0269 16.905 55.0929 16.785C55.1649 16.665 55.2009 16.527 55.2009 16.371C55.2009 16.065 55.1259 15.81 54.9759 15.606C54.8319 15.396 54.6399 15.186 54.3999 14.976L53.6439 14.319C53.3739 14.091 53.1519 13.833 52.9779 13.545C52.8099 13.257 52.7259 12.903 52.7259 12.483C52.7259 11.883 52.8999 11.424 53.2479 11.106C53.6019 10.782 54.0849 10.62 54.6969 10.62C55.0629 10.62 55.3629 10.68 55.5969 10.8C55.8309 10.92 56.0109 11.082 56.1369 11.286C56.2689 11.484 56.3589 11.703 56.4069 11.943C56.4609 12.177 56.4939 12.411 56.5059 12.645L55.2369 12.834C55.2249 12.612 55.2039 12.417 55.1739 12.249C55.1499 12.081 55.0959 11.949 55.0119 11.853C54.9339 11.757 54.8139 11.709 54.6519 11.709C54.4779 11.709 54.3489 11.775 54.2649 11.907C54.1809 12.033 54.1389 12.174 54.1389 12.33C54.1389 12.588 54.1959 12.801 54.3099 12.969C54.4299 13.131 54.5919 13.302 54.7959 13.482L55.5339 14.13C55.8399 14.394 56.1009 14.697 56.3169 15.039C56.5389 15.375 56.6499 15.792 56.6499 16.29C56.6499 16.632 56.5719 16.941 56.4159 17.217C56.2599 17.493 56.0409 17.709 55.7589 17.865C55.4829 18.021 55.1559 18.099 54.7779 18.099Z" fill="white"/>
<path d="M64.1797 17.5H72.4297V13H73.1797V17.5H76.1797V13H76.9297V17.5H79.9297V13H80.6797V17.5H79.9297H83.6797V13H84.4297V17.5H88.1797H103.18V19H64.1797V17.5Z" fill="#83899C"/>
<rect x="7.17969" y="55" width="131" height="48" rx="2" fill="black" fill-opacity="0.05"/>
<rect x="7.67969" y="55.5" width="130" height="47" rx="1.5" stroke="#393C45" stroke-opacity="0.24"/>
<path d="M89.6797 99.0134H90.3539L92.1797 100V96L90.3539 96.9866H89.6797C89.4039 96.9866 89.1797 97.1684 89.1797 97.392V98.608C89.1797 98.8316 89.4039 99.0134 89.6797 99.0134Z" fill="#4271FF"/>
<path d="M7.17969 101H8.17969C8.17969 101.552 8.6274 102 9.17969 102H15.4297V97H16.1797V102H19.1797V97H19.9297V102H22.9297V97H23.6797V102H22.9297H26.6797V97H27.4297V102H31.1797H27.6797V103H9.17969C8.07512 103 7.17969 102.105 7.17969 101Z" fill="#83899C"/>
<path d="M43.1797 102.5V102H48.1797H41.9297V99.5H41.1797V102H38.1797V99.5H37.4297V102H34.4297V99.5H33.6797V102H34.4297H30.6797V99.5H29.9297V102H26.1797H27.6797V103H43.1797V102.5Z" fill="#83899C"/>
<path d="M58.1797 102.5V102H63.1797H56.9297V99.5H56.1797V102H53.1797V99.5H52.4297V102H49.4297V99.5H48.6797V102H49.4297H45.6797V99.5H44.9297V102H41.1797H42.6797V103H58.1797V102.5Z" fill="#83899C"/>
<path d="M73.1797 102.5V102H78.1797H71.9297V99.5H71.1797V102H68.1797V99.5H67.4297V102H64.4297V99.5H63.6797V102H64.4297H60.6797V99.5H59.9297V102H56.1797H57.6797V103H73.1797V102.5Z" fill="#FF6969"/>
<path d="M94.1997 100L93.2947 95.95H93.8247L94.4647 98.935L95.0747 95.95H95.5897L94.6947 100H94.1997ZM97.015 100.045C96.7417 100.045 96.5234 99.9917 96.36 99.885C96.1967 99.7783 96.08 99.6267 96.01 99.43C95.94 99.23 95.905 98.9967 95.905 98.73V97.195C95.905 96.9283 95.94 96.7 96.01 96.51C96.0834 96.3167 96.2 96.17 96.36 96.07C96.5234 95.9667 96.7417 95.915 97.015 95.915C97.2884 95.915 97.505 95.9667 97.665 96.07C97.825 96.1733 97.94 96.32 98.01 96.51C98.0834 96.7 98.12 96.9283 98.12 97.195V98.735C98.12 98.9983 98.0834 99.2283 98.01 99.425C97.94 99.6217 97.825 99.775 97.665 99.885C97.505 99.9917 97.2884 100.045 97.015 100.045ZM97.015 99.6C97.165 99.6 97.2784 99.57 97.355 99.51C97.4317 99.4467 97.4834 99.36 97.51 99.25C97.5367 99.1367 97.55 99.005 97.55 98.855V97.08C97.55 96.93 97.5367 96.8017 97.51 96.695C97.4834 96.585 97.4317 96.5017 97.355 96.445C97.2784 96.385 97.165 96.355 97.015 96.355C96.865 96.355 96.75 96.385 96.67 96.445C96.5934 96.5017 96.5417 96.585 96.515 96.695C96.4884 96.8017 96.475 96.93 96.475 97.08V98.855C96.475 99.005 96.4884 99.1367 96.515 99.25C96.5417 99.36 96.5934 99.4467 96.67 99.51C96.75 99.57 96.865 99.6 97.015 99.6ZM98.6754 100V95.95H99.2404V99.595H100.275V100H98.6754Z" fill="#4271FF"/>
<rect x="102.18" y="97" width="31" height="2" fill="#393C45"/>
<rect x="7.17969" y="86" width="6" height="6" fill="#393C45"/>
<path d="M9.25569 91L9.94369 87.76H10.3797L11.0717 91H10.6437L10.4957 90.184H9.83569L9.67969 91H9.25569ZM9.89569 89.86H10.4357L10.1637 88.4L9.89569 89.86Z" fill="#C9D4F4"/>
<rect x="108.441" y="61.2609" width="23.4783" height="6.47826" rx="0.782609" stroke="black" stroke-width="0.521739"/>
<path d="M14.6677 68V61.52H17.3877V62.352H15.8517V64.216H17.0597V65.04H15.8517V67.184H17.4037V68H14.6677ZM18.0896 68V61.52H18.9136L20.4896 65.216V61.52H21.4656V68H20.6816L19.0976 64.128V68H18.0896ZM23.0969 68V62.392H22.0649V61.52H25.2969V62.392H24.2809V68H23.0969ZM25.8864 68V61.52H28.6064V62.352H27.0704V64.216H28.2784V65.04H27.0704V67.184H28.6224V68H25.8864ZM29.3083 68V61.52H30.8603C31.2976 61.52 31.6656 61.5733 31.9643 61.68C32.2683 61.7813 32.4976 61.9573 32.6523 62.208C32.8123 62.4587 32.8923 62.8 32.8923 63.232C32.8923 63.4933 32.8683 63.728 32.8203 63.936C32.7723 64.144 32.6896 64.3227 32.5723 64.472C32.4603 64.616 32.303 64.728 32.1003 64.808L33.0043 68H31.8203L31.0363 65.032H30.4923V68H29.3083ZM30.4923 64.288H30.8603C31.0896 64.288 31.271 64.256 31.4043 64.192C31.543 64.1227 31.6416 64.016 31.7003 63.872C31.759 63.7227 31.7883 63.5333 31.7883 63.304C31.7883 62.9787 31.727 62.736 31.6043 62.576C31.487 62.4107 31.2603 62.328 30.9243 62.328H30.4923V64.288ZM35.738 68V61.52H38.402V62.336H36.922V64.224H38.13V65.048H36.922V68H35.738ZM39.0427 68V61.52H40.5947C41.032 61.52 41.4 61.5733 41.6987 61.68C42.0027 61.7813 42.232 61.9573 42.3867 62.208C42.5467 62.4587 42.6267 62.8 42.6267 63.232C42.6267 63.4933 42.6027 63.728 42.5547 63.936C42.5067 64.144 42.424 64.3227 42.3067 64.472C42.1947 64.616 42.0374 64.728 41.8347 64.808L42.7387 68H41.5547L40.7707 65.032H40.2267V68H39.0427ZM40.2267 64.288H40.5947C40.824 64.288 41.0054 64.256 41.1387 64.192C41.2774 64.1227 41.376 64.016 41.4347 63.872C41.4934 63.7227 41.5227 63.5333 41.5227 63.304C41.5227 62.9787 41.4614 62.736 41.3387 62.576C41.2214 62.4107 40.9947 62.328 40.6587 62.328H40.2267V64.288ZM43.5271 68V61.52H46.2471V62.352H44.7111V64.216H45.9191V65.04H44.7111V67.184H46.2631V68H43.5271ZM50.1089 69.288C49.9756 69.224 49.8316 69.128 49.6769 69C49.5276 68.872 49.3783 68.7253 49.2289 68.56C49.0849 68.4 48.9596 68.24 48.8529 68.08C48.8316 68.0853 48.8076 68.088 48.7809 68.088C48.7596 68.088 48.7356 68.088 48.7089 68.088C48.2503 68.088 47.8849 68.0027 47.6129 67.832C47.3409 67.6613 47.1463 67.416 47.0289 67.096C46.9116 66.776 46.8529 66.3973 46.8529 65.96V63.536C46.8529 63.0987 46.9116 62.7253 47.0289 62.416C47.1463 62.1013 47.3409 61.8613 47.6129 61.696C47.8849 61.5307 48.2503 61.448 48.7089 61.448C49.1783 61.448 49.5489 61.5307 49.8209 61.696C50.0929 61.8613 50.2876 62.1013 50.4049 62.416C50.5223 62.7253 50.5809 63.0987 50.5809 63.536V65.968C50.5809 66.2773 50.5516 66.5573 50.4929 66.808C50.4343 67.0587 50.3383 67.2773 50.2049 67.464C50.0716 67.6453 49.8956 67.7867 49.6769 67.888C49.7463 67.9627 49.8183 68.04 49.8929 68.12C49.9676 68.2 50.0423 68.2747 50.1169 68.344C50.1916 68.4133 50.2636 68.4693 50.3329 68.512L50.1089 69.288ZM48.7089 67.216C48.9063 67.216 49.0529 67.1733 49.1489 67.088C49.2449 67.0027 49.3089 66.8853 49.3409 66.736C49.3729 66.5867 49.3889 66.424 49.3889 66.248V63.264C49.3889 63.0827 49.3729 62.92 49.3409 62.776C49.3089 62.632 49.2449 62.52 49.1489 62.44C49.0529 62.3547 48.9063 62.312 48.7089 62.312C48.5169 62.312 48.3729 62.3547 48.2769 62.44C48.1809 62.52 48.1169 62.632 48.0849 62.776C48.0583 62.92 48.0449 63.0827 48.0449 63.264V66.248C48.0449 66.424 48.0583 66.5867 48.0849 66.736C48.1169 66.8853 48.1809 67.0027 48.2769 67.088C48.3729 67.1733 48.5169 67.216 48.7089 67.216ZM53.2406 68.088C52.7606 68.088 52.3872 68 52.1206 67.824C51.8539 67.648 51.6699 67.3973 51.5686 67.072C51.4672 66.7467 51.4166 66.3573 51.4166 65.904V61.52H52.5686V66.04C52.5686 66.2427 52.5819 66.4347 52.6086 66.616C52.6352 66.792 52.6966 66.936 52.7926 67.048C52.8939 67.1547 53.0432 67.208 53.2406 67.208C53.4486 67.208 53.5979 67.1547 53.6886 67.048C53.7846 66.936 53.8459 66.792 53.8726 66.616C53.9046 66.4347 53.9206 66.2427 53.9206 66.04V61.52H55.0646V65.904C55.0646 66.3573 55.0139 66.7467 54.9126 67.072C54.8112 67.3973 54.6272 67.648 54.3606 67.824C54.0992 68 53.7259 68.088 53.2406 68.088ZM55.9958 68V61.52H58.7158V62.352H57.1798V64.216H58.3878V65.04H57.1798V67.184H58.7318V68H55.9958ZM59.4177 68V61.52H60.2417L61.8177 65.216V61.52H62.7937V68H62.0097L60.4257 64.128V68H59.4177ZM65.5211 68.088C65.0464 68.088 64.6731 67.9947 64.4011 67.808C64.1344 67.6213 63.9477 67.368 63.8411 67.048C63.7344 66.7227 63.6811 66.3493 63.6811 65.928V63.616C63.6811 63.1733 63.7344 62.7893 63.8411 62.464C63.9477 62.1387 64.1344 61.888 64.4011 61.712C64.6731 61.536 65.0464 61.448 65.5211 61.448C65.9691 61.448 66.3184 61.5253 66.5691 61.68C66.8251 61.8293 67.0064 62.0453 67.1131 62.328C67.2197 62.6107 67.2731 62.9387 67.2731 63.312V63.856H66.1371V63.296C66.1371 63.1147 66.1264 62.9493 66.1051 62.8C66.0891 62.6507 66.0384 62.5333 65.9531 62.448C65.8731 62.3573 65.7317 62.312 65.5291 62.312C65.3264 62.312 65.1771 62.36 65.0811 62.456C64.9904 62.5467 64.9317 62.672 64.9051 62.832C64.8784 62.9867 64.8651 63.1627 64.8651 63.36V66.176C64.8651 66.4107 64.8837 66.6053 64.9211 66.76C64.9584 66.9093 65.0251 67.024 65.1211 67.104C65.2224 67.1787 65.3584 67.216 65.5291 67.216C65.7264 67.216 65.8651 67.1707 65.9451 67.08C66.0304 66.984 66.0837 66.8587 66.1051 66.704C66.1264 66.5493 66.1371 66.376 66.1371 66.184V65.6H67.2731V66.12C67.2731 66.504 67.2224 66.8453 67.1211 67.144C67.0197 67.4373 66.8411 67.6693 66.5851 67.84C66.3344 68.0053 65.9797 68.088 65.5211 68.088ZM68.9858 68V65.528L67.6738 61.52H68.7778L69.5778 64.088L70.3298 61.52H71.4098L70.1138 65.528V68H68.9858Z" fill="#393C45" fill-opacity="0.62"/>
<path d="M110.522 66.0435V62.6626H111.332C111.56 62.6626 111.752 62.6904 111.908 62.7461C112.067 62.7989 112.186 62.8908 112.267 63.0215C112.35 63.1523 112.392 63.3304 112.392 63.5558C112.392 63.6922 112.38 63.8146 112.355 63.9231C112.329 64.0316 112.286 64.1248 112.225 64.2028C112.167 64.2779 112.085 64.3363 111.979 64.3781L112.451 66.0435H111.833L111.424 64.4949H111.14V66.0435H110.522ZM111.14 64.1068H111.332C111.452 64.1068 111.546 64.0901 111.616 64.0567C111.688 64.0205 111.74 63.9648 111.77 63.8897C111.801 63.8118 111.816 63.713 111.816 63.5934C111.816 63.4236 111.784 63.297 111.72 63.2135C111.659 63.1273 111.541 63.0842 111.365 63.0842H111.14V64.1068ZM113.15 66.1269V65.6928C113.239 65.6928 113.313 65.6873 113.371 65.6762C113.43 65.665 113.474 65.6455 113.505 65.6177C113.538 65.5871 113.562 65.544 113.576 65.4883C113.59 65.4299 113.596 65.3562 113.596 65.2671V62.6626H114.21V65.2922C114.21 65.4814 114.188 65.6386 114.143 65.7638C114.099 65.8862 114.021 65.9781 113.91 66.0393C113.801 66.0977 113.647 66.1269 113.446 66.1269H113.15ZM116.143 66.0894C115.904 66.0894 115.713 66.0448 115.571 65.9558C115.43 65.8668 115.328 65.7388 115.267 65.5718C115.206 65.4048 115.175 65.2073 115.175 64.9791V63.7144C115.175 63.4862 115.206 63.2915 115.267 63.1301C115.328 62.9659 115.43 62.8407 115.571 62.7544C115.713 62.6682 115.904 62.625 116.143 62.625C116.388 62.625 116.58 62.6682 116.719 62.7544C116.861 62.8407 116.963 62.9659 117.024 63.1301C117.088 63.2915 117.12 63.4862 117.12 63.7144V64.9833C117.12 65.2087 117.088 65.4048 117.024 65.5718C116.963 65.736 116.861 65.864 116.719 65.9558C116.58 66.0448 116.388 66.0894 116.143 66.0894ZM116.143 65.6344C116.246 65.6344 116.321 65.6122 116.369 65.5676C116.419 65.5231 116.452 65.4619 116.469 65.384C116.486 65.3061 116.494 65.2212 116.494 65.1294V63.5725C116.494 63.4779 116.486 63.393 116.469 63.3179C116.452 63.2428 116.419 63.1843 116.369 63.1426C116.321 63.0981 116.246 63.0758 116.143 63.0758C116.046 63.0758 115.972 63.0981 115.922 63.1426C115.872 63.1843 115.839 63.2428 115.822 63.3179C115.805 63.393 115.797 63.4779 115.797 63.5725V65.1294C115.797 65.2212 115.804 65.3061 115.818 65.384C115.834 65.4619 115.868 65.5231 115.918 65.5676C115.968 65.6122 116.043 65.6344 116.143 65.6344ZM118.517 66.0435V64.7537L117.832 62.6626H118.408L118.826 64.0024L119.218 62.6626H119.782L119.105 64.7537V66.0435H118.517ZM120.476 66.0435L121.452 62.6626H121.828L120.851 66.0435H120.476ZM123.207 66.0435V64.7537L122.523 62.6626H123.099L123.516 64.0024L123.909 62.6626H124.472L123.796 64.7537V66.0435H123.207ZM126.156 66.0894C125.917 66.0894 125.726 66.0448 125.584 65.9558C125.443 65.8668 125.341 65.7388 125.28 65.5718C125.219 65.4048 125.188 65.2073 125.188 64.9791V63.7144C125.188 63.4862 125.219 63.2915 125.28 63.1301C125.341 62.9659 125.443 62.8407 125.584 62.7544C125.726 62.6682 125.917 62.625 126.156 62.625C126.401 62.625 126.593 62.6682 126.732 62.7544C126.874 62.8407 126.976 62.9659 127.037 63.1301C127.101 63.2915 127.133 63.4862 127.133 63.7144V64.9833C127.133 65.2087 127.101 65.4048 127.037 65.5718C126.976 65.736 126.874 65.864 126.732 65.9558C126.593 66.0448 126.401 66.0894 126.156 66.0894ZM126.156 65.6344C126.259 65.6344 126.334 65.6122 126.382 65.5676C126.432 65.5231 126.465 65.4619 126.482 65.384C126.499 65.3061 126.507 65.2212 126.507 65.1294V63.5725C126.507 63.4779 126.499 63.393 126.482 63.3179C126.465 63.2428 126.432 63.1843 126.382 63.1426C126.334 63.0981 126.259 63.0758 126.156 63.0758C126.059 63.0758 125.985 63.0981 125.935 63.1426C125.885 63.1843 125.852 63.2428 125.835 63.3179C125.818 63.393 125.81 63.4779 125.81 63.5725V65.1294C125.81 65.2212 125.817 65.3061 125.831 65.384C125.847 65.4619 125.881 65.5231 125.931 65.5676C125.981 65.6122 126.056 65.6344 126.156 65.6344ZM128.091 66.0435V62.6626H129.51V63.0967H128.709V64.0692H129.339V64.4991H128.709V65.6177H129.518V66.0435H128.091Z" fill="#393C45"/>
<path d="M96.9357 43V33.28H98.9157V37.276H100.632V33.28H102.612V43H100.632V38.692H98.9157V43H96.9357Z" fill="#393C45"/>
<path d="M131.912 43V33.28H134.432C135.088 33.28 135.648 33.356 136.112 33.508C136.584 33.652 136.944 33.912 137.192 34.288C137.448 34.664 137.576 35.184 137.576 35.848C137.576 36.248 137.54 36.604 137.468 36.916C137.404 37.22 137.284 37.488 137.108 37.72C136.94 37.944 136.7 38.124 136.388 38.26L137.732 43H135.704L134.588 38.596H133.892V43H131.912ZM133.892 37.42H134.468C134.788 37.42 135.04 37.368 135.224 37.264C135.408 37.16 135.536 37.004 135.608 36.796C135.688 36.58 135.728 36.316 135.728 36.004C135.728 35.556 135.644 35.216 135.476 34.984C135.316 34.744 135.012 34.624 134.564 34.624H133.892V37.42Z" fill="#393C45"/>
<path d="M111.764 42L110.378 34.71H111.665L112.529 39.75L113.339 34.71H114.68L113.294 42H111.764ZM115.431 42V34.71H118.509V35.718H116.916V37.689H118.266V38.724H116.916V42H115.431ZM121.288 42.099C120.754 42.099 120.331 42.003 120.019 41.811C119.707 41.619 119.482 41.346 119.344 40.992C119.212 40.632 119.146 40.203 119.146 39.705V36.987C119.146 36.489 119.212 36.063 119.344 35.709C119.482 35.355 119.707 35.085 120.019 34.899C120.331 34.713 120.754 34.62 121.288 34.62C121.828 34.62 122.254 34.716 122.566 34.908C122.884 35.094 123.109 35.364 123.241 35.718C123.379 36.066 123.448 36.489 123.448 36.987V39.705C123.448 40.203 123.379 40.632 123.241 40.992C123.109 41.346 122.884 41.619 122.566 41.811C122.254 42.003 121.828 42.099 121.288 42.099ZM121.288 41.028C121.48 41.028 121.621 40.986 121.711 40.902C121.801 40.812 121.861 40.695 121.891 40.551C121.921 40.401 121.936 40.242 121.936 40.074V36.627C121.936 36.459 121.921 36.303 121.891 36.159C121.861 36.015 121.801 35.901 121.711 35.817C121.621 35.727 121.48 35.682 121.288 35.682C121.108 35.682 120.973 35.727 120.883 35.817C120.793 35.901 120.733 36.015 120.703 36.159C120.673 36.303 120.658 36.459 120.658 36.627V40.074C120.658 40.242 120.67 40.401 120.694 40.551C120.724 40.695 120.784 40.812 120.874 40.902C120.964 40.986 121.102 41.028 121.288 41.028Z" fill="#696F82"/>
<path d="M79.847 41.3334H81.645L86.5137 44.5787V31.4214L81.645 34.6667H79.847C79.1117 34.6667 78.5137 35.2647 78.5137 36.0001V40.0001C78.5137 40.7354 79.1117 41.3334 79.847 41.3334Z" fill="#393C45"/>
<rect x="13.6797" y="10.5" width="17" height="8" rx="1.5" stroke="#393C45"/>
<rect x="34.6797" y="10.5" width="8" height="8" rx="4" fill="#393C45" stroke="#393C45"/>
<g clip-path="url(#clip0_32_151)">
<path fill-rule="evenodd" clip-rule="evenodd" d="M36.5957 14.5C36.5957 14.5802 36.6607 14.6454 36.7411 14.6454H37.1353C37.1692 15.0048 37.3274 15.3411 37.5827 15.5963C37.8379 15.8516 38.1742 16.0098 38.5336 16.0437V16.4379C38.5336 16.4764 38.5489 16.5134 38.5762 16.5407C38.6035 16.568 38.6405 16.5833 38.679 16.5833C38.7176 16.5833 38.7546 16.568 38.7819 16.5407C38.8091 16.5134 38.8245 16.4764 38.8245 16.4379V16.0437C39.1838 16.0098 39.5202 15.8516 39.7754 15.5963C40.0307 15.3411 40.1889 15.0048 40.2228 14.6454H40.617C40.6555 14.6454 40.6925 14.6301 40.7198 14.6028C40.747 14.5755 40.7624 14.5385 40.7624 14.5C40.7624 14.4614 40.747 14.4244 40.7198 14.3971C40.6925 14.3699 40.6555 14.3545 40.617 14.3545H40.2228C40.1889 13.9951 40.0307 13.6588 39.7754 13.4036C39.5202 13.1483 39.1838 12.9901 38.8245 12.9562V12.562C38.8245 12.5235 38.8091 12.4865 38.7819 12.4592C38.7546 12.4319 38.7176 12.4166 38.679 12.4166C38.6405 12.4166 38.6035 12.4319 38.5762 12.4592C38.5489 12.4865 38.5336 12.5235 38.5336 12.562V12.9562C38.1742 12.9901 37.8379 13.1483 37.5827 13.4036C37.3274 13.6588 37.1692 13.9951 37.1353 14.3545H36.7411C36.7026 14.3545 36.6656 14.3699 36.6383 14.3971C36.611 14.4244 36.5957 14.4614 36.5957 14.5ZM37.9524 14.5C37.9524 14.3072 38.0289 14.1224 38.1652 13.9861C38.3015 13.8499 38.4863 13.7733 38.679 13.7733C38.8718 13.7733 39.0566 13.8499 39.1929 13.9861C39.3291 14.1224 39.4057 14.3072 39.4057 14.5C39.4057 14.6927 39.3291 14.8775 39.1929 15.0138C39.0566 15.1501 38.8718 15.2266 38.679 15.2266C38.4863 15.2266 38.3015 15.1501 38.1652 15.0138C38.0289 14.8775 37.9524 14.6927 37.9524 14.5Z" fill="#C4CFEE"/>
<path d="M38.2422 14.5C38.2422 14.3844 38.2881 14.2735 38.3699 14.1917C38.4517 14.1099 38.5626 14.064 38.6782 14.064C38.7939 14.064 38.9048 14.1099 38.9866 14.1917C39.0683 14.2735 39.1143 14.3844 39.1143 14.5C39.1143 14.6157 39.0683 14.7266 38.9866 14.8083C38.9048 14.8901 38.7939 14.936 38.6782 14.936C38.5626 14.936 38.4517 14.8901 38.3699 14.8083C38.2881 14.7266 38.2422 14.6157 38.2422 14.5Z" fill="#C4CFEE"/>
</g>
<path d="M18.7877 17.072C18.4597 17.072 18.1997 17.004 18.0077 16.868C17.8157 16.728 17.6777 16.532 17.5937 16.28C17.5137 16.024 17.4737 15.728 17.4737 15.392V13.766C17.4737 13.418 17.5157 13.118 17.5997 12.866C17.6837 12.614 17.8297 12.42 18.0377 12.284C18.2497 12.148 18.5357 12.08 18.8957 12.08C19.2437 12.08 19.5177 12.138 19.7177 12.254C19.9217 12.37 20.0677 12.534 20.1557 12.746C20.2437 12.958 20.2877 13.21 20.2877 13.502V13.784H19.3217V13.442C19.3217 13.314 19.3137 13.202 19.2977 13.106C19.2817 13.006 19.2437 12.928 19.1837 12.872C19.1277 12.816 19.0357 12.788 18.9077 12.788C18.7757 12.788 18.6797 12.822 18.6197 12.89C18.5597 12.958 18.5217 13.046 18.5057 13.154C18.4897 13.258 18.4817 13.37 18.4817 13.49V15.644C18.4817 15.78 18.4937 15.902 18.5177 16.01C18.5417 16.118 18.5857 16.202 18.6497 16.262C18.7177 16.322 18.8137 16.352 18.9377 16.352C19.0617 16.352 19.1577 16.32 19.2257 16.256C19.2937 16.192 19.3397 16.106 19.3637 15.998C19.3917 15.886 19.4057 15.76 19.4057 15.62V15.104H18.9317V14.504H20.2997V17H19.6517L19.5917 16.562C19.5277 16.71 19.4317 16.832 19.3037 16.928C19.1757 17.024 19.0037 17.072 18.7877 17.072ZM20.9793 17V12.14H22.5213C22.8133 12.14 23.0513 12.196 23.2353 12.308C23.4193 12.416 23.5553 12.574 23.6433 12.782C23.7353 12.99 23.7813 13.242 23.7813 13.538C23.7813 13.886 23.7213 14.158 23.6013 14.354C23.4853 14.55 23.3253 14.69 23.1213 14.774C22.9173 14.854 22.6833 14.894 22.4193 14.894H21.9693V17H20.9793ZM21.9693 14.198H22.3173C22.4613 14.198 22.5713 14.176 22.6473 14.132C22.7273 14.084 22.7813 14.01 22.8093 13.91C22.8373 13.81 22.8513 13.682 22.8513 13.526C22.8513 13.378 22.8393 13.254 22.8153 13.154C22.7953 13.054 22.7473 12.976 22.6713 12.92C22.5953 12.864 22.4753 12.836 22.3113 12.836H21.9693V14.198ZM25.5147 17.066C25.2147 17.066 24.9647 17.012 24.7647 16.904C24.5647 16.792 24.4127 16.626 24.3087 16.406C24.2087 16.182 24.1507 15.898 24.1347 15.554L24.9867 15.41C24.9947 15.61 25.0147 15.778 25.0467 15.914C25.0827 16.046 25.1347 16.146 25.2027 16.214C25.2747 16.278 25.3627 16.31 25.4667 16.31C25.5947 16.31 25.6807 16.27 25.7247 16.19C25.7727 16.11 25.7967 16.018 25.7967 15.914C25.7967 15.71 25.7467 15.54 25.6467 15.404C25.5507 15.264 25.4227 15.124 25.2627 14.984L24.7587 14.546C24.5787 14.394 24.4307 14.222 24.3147 14.03C24.2027 13.838 24.1467 13.602 24.1467 13.322C24.1467 12.922 24.2627 12.616 24.4947 12.404C24.7307 12.188 25.0527 12.08 25.4607 12.08C25.7047 12.08 25.9047 12.12 26.0607 12.2C26.2167 12.28 26.3367 12.388 26.4207 12.524C26.5087 12.656 26.5687 12.802 26.6007 12.962C26.6367 13.118 26.6587 13.274 26.6667 13.43L25.8207 13.556C25.8127 13.408 25.7987 13.278 25.7787 13.166C25.7627 13.054 25.7267 12.966 25.6707 12.902C25.6187 12.838 25.5387 12.806 25.4307 12.806C25.3147 12.806 25.2287 12.85 25.1727 12.938C25.1167 13.022 25.0887 13.116 25.0887 13.22C25.0887 13.392 25.1267 13.534 25.2027 13.646C25.2827 13.754 25.3907 13.868 25.5267 13.988L26.0187 14.42C26.2227 14.596 26.3967 14.798 26.5407 15.026C26.6887 15.25 26.7627 15.528 26.7627 15.86C26.7627 16.088 26.7107 16.294 26.6067 16.478C26.5027 16.662 26.3567 16.806 26.1687 16.91C25.9847 17.014 25.7667 17.066 25.5147 17.066Z" fill="#4A4E59"/>
<path d="M117.38 12V10.5H131.68V18.5H117.38V17V16.5H116.88H115.68V14.5V12.5H116.88H117.38V12Z" stroke="#393C45"/>
<rect x="127.18" y="12" width="3" height="5" fill="#393C45"/>
<rect x="123.18" y="12" width="3" height="5" fill="#393C45"/>
<rect x="119.18" y="12" width="3" height="5" fill="#393C45"/>
<defs>
<filter id="filter0_i_32_151" x="0.179688" y="0" width="145" height="179" filterUnits="userSpaceOnUse" color-interpolation-filters="sRGB">
<feFlood flood-opacity="0" result="BackgroundImageFix"/>
<feBlend mode="normal" in="SourceGraphic" in2="BackgroundImageFix" result="shape"/>
<feColorMatrix in="SourceAlpha" type="matrix" values="0 0 0 0 0 0 0 0 0 0 0 0 0 0 0 0 0 0 127 0" result="hardAlpha"/>
<feOffset/>
<feGaussianBlur stdDeviation="10"/>
<feComposite in2="hardAlpha" operator="arithmetic" k2="-1" k3="1"/>
<feColorMatrix type="matrix" values="0 0 0 0 0 0 0 0 0 0 0 0 0 0 0 0 0 0 1 0"/>
<feBlend mode="normal" in2="shape" result="effect1_innerShadow_32_151"/>
</filter>
<linearGradient id="paint0_linear_32_151" x1="21.1797" y1="61" x2="129.18" y2="184" gradientUnits="userSpaceOnUse">
<stop stop-color="#C9D4F4"/>
<stop offset="1" stop-color="#B4C7FF"/>
</linearGradient>
<radialGradient id="paint1_radial_32_151" cx="0" cy="0" r="1" gradientUnits="userSpaceOnUse" gradientTransform="translate(72.6797 89.5) rotate(90) scale(86.9827 69.6879)">
<stop stop-color="#292B39"/>
<stop offset="1" stop-color="#333333"/>
</radialGradient>
<linearGradient id="paint2_linear_32_151" x1="21.1797" y1="61" x2="129.18" y2="184" gradientUnits="userSpaceOnUse">
<stop stop-color="#C9D4F4"/>
<stop offset="1" stop-color="#B4C7FF"/>
</linearGradient>
<radialGradient id="paint3_radial_32_151" cx="0" cy="0" r="1" gradientUnits="userSpaceOnUse" gradientTransform="translate(72.6797 89.5) rotate(90) scale(86.9827 69.6879)">
<stop stop-color="#292B39"/>
<stop offset="1" stop-color="#333333"/>
</radialGradient>
<clipPath id="clip0_32_151">
<rect width="5" height="5" fill="white" transform="translate(36.1797 12)"/>
</clipPath>
</defs>
</svg>
