<svg width="4.125rem" height="3.875rem" viewBox="0 0 66 62" fill="none" xmlns="http://www.w3.org/2000/svg">
<g filter="url(#filter0_d_41_150)">
<path d="M4.8364 3.54627C4.49486 1.70194 5.91057 0 7.78625 0H58.6797C60.3365 0 61.6797 1.34315 61.6797 3V51C61.6797 52.6569 60.3365 54 58.6797 54H16.6751C15.229 54 13.9886 52.9683 13.7253 51.5463L4.8364 3.54627Z" fill="#A2ACCA"/>
<path d="M7.78625 0.5H58.6797C60.0604 0.5 61.1797 1.61929 61.1797 3V51C61.1797 52.3807 60.0604 53.5 58.6797 53.5H16.6751C15.47 53.5 14.4364 52.6402 14.2169 51.4552L5.32805 3.45523C5.04343 1.91829 6.22318 0.5 7.78625 0.5Z" stroke="#393C45" stroke-opacity="0.09"/>
</g>
<path d="M42.3201 20.94C42.3601 20.64 42.3801 20.33 42.3801 20C42.3801 19.68 42.3601 19.36 42.3101 19.06L44.3401 17.48C44.4276 17.4079 44.4874 17.3077 44.5093 17.1965C44.5311 17.0853 44.5138 16.9699 44.4601 16.87L42.5401 13.55C42.4836 13.4496 42.3934 13.3724 42.2854 13.3321C42.1774 13.2919 42.0586 13.2911 41.9501 13.33L39.5601 14.29C39.0601 13.91 38.5301 13.59 37.9401 13.35L37.5801 10.81C37.5624 10.6956 37.5043 10.5912 37.4162 10.516C37.3281 10.4408 37.216 10.3996 37.1001 10.4H33.2601C33.0201 10.4 32.8301 10.57 32.7901 10.81L32.4301 13.35C31.8401 13.59 31.3001 13.92 30.8101 14.29L28.4201 13.33C28.2001 13.25 27.9501 13.33 27.8301 13.55L25.9201 16.87C25.8001 17.08 25.8401 17.34 26.0401 17.48L28.0701 19.06C28.0201 19.36 27.9801 19.69 27.9801 20C27.9801 20.31 28.0001 20.64 28.0501 20.94L26.0201 22.52C25.9327 22.5921 25.8729 22.6923 25.851 22.8036C25.8291 22.9148 25.8465 23.0302 25.9001 23.13L27.8201 26.45C27.9401 26.67 28.1901 26.74 28.4101 26.67L30.8001 25.71C31.3001 26.09 31.8301 26.41 32.4201 26.65L32.7801 29.19C32.8301 29.43 33.0201 29.6 33.2601 29.6H37.1001C37.3401 29.6 37.5401 29.43 37.5701 29.19L37.9301 26.65C38.5201 26.41 39.0601 26.09 39.5501 25.71L41.9401 26.67C42.1601 26.75 42.4101 26.67 42.5301 26.45L44.4501 23.13C44.5701 22.91 44.5201 22.66 44.3301 22.52L42.3201 20.94ZM35.1801 23.6C33.2001 23.6 31.5801 21.98 31.5801 20C31.5801 18.02 33.2001 16.4 35.1801 16.4C37.1601 16.4 38.7801 18.02 38.7801 20C38.7801 21.98 37.1601 23.6 35.1801 23.6Z" fill="#393C45"/>
<path d="M22.8707 43.072C22.4027 43.072 21.9947 42.997 21.6467 42.847C21.2987 42.697 21.0287 42.487 20.8367 42.217C20.6507 41.947 20.5577 41.629 20.5577 41.263V41.038C20.5577 41.008 20.5667 40.984 20.5847 40.966C20.6087 40.942 20.6357 40.93 20.6657 40.93H21.4667C21.4967 40.93 21.5207 40.942 21.5387 40.966C21.5627 40.984 21.5747 41.008 21.5747 41.038V41.209C21.5747 41.485 21.6977 41.716 21.9437 41.902C22.1897 42.082 22.5257 42.172 22.9517 42.172C23.3177 42.172 23.5937 42.094 23.7797 41.938C23.9657 41.782 24.0587 41.581 24.0587 41.335C24.0587 41.167 24.0077 41.026 23.9057 40.912C23.8037 40.792 23.6567 40.684 23.4647 40.588C23.2787 40.492 22.9967 40.372 22.6187 40.228C22.1927 40.072 21.8477 39.925 21.5837 39.787C21.3197 39.649 21.0977 39.463 20.9177 39.229C20.7437 38.989 20.6567 38.692 20.6567 38.338C20.6567 37.81 20.8487 37.393 21.2327 37.087C21.6167 36.781 22.1297 36.628 22.7717 36.628C23.2217 36.628 23.6177 36.706 23.9597 36.862C24.3077 37.018 24.5777 37.237 24.7697 37.519C24.9617 37.795 25.0577 38.116 25.0577 38.482V38.635C25.0577 38.665 25.0457 38.692 25.0217 38.716C25.0037 38.734 24.9797 38.743 24.9497 38.743H24.1397C24.1097 38.743 24.0827 38.734 24.0587 38.716C24.0407 38.692 24.0317 38.665 24.0317 38.635V38.536C24.0317 38.254 23.9147 38.017 23.6807 37.825C23.4527 37.627 23.1347 37.528 22.7267 37.528C22.3967 37.528 22.1387 37.597 21.9527 37.735C21.7727 37.873 21.6827 38.068 21.6827 38.32C21.6827 38.5 21.7307 38.647 21.8267 38.761C21.9227 38.875 22.0667 38.98 22.2587 39.076C22.4507 39.166 22.7477 39.283 23.1497 39.427C23.5757 39.589 23.9147 39.736 24.1667 39.868C24.4247 40 24.6437 40.186 24.8237 40.426C25.0097 40.66 25.1027 40.954 25.1027 41.308C25.1027 41.848 24.9017 42.277 24.4997 42.595C24.1037 42.913 23.5607 43.072 22.8707 43.072ZM29.9341 40.183C29.9581 40.333 29.9701 40.501 29.9701 40.687L29.9611 40.966C29.9611 41.038 29.9251 41.074 29.8531 41.074H27.0361C27.0061 41.074 26.9911 41.089 26.9911 41.119C27.0091 41.317 27.0361 41.452 27.0721 41.524C27.2161 41.956 27.5671 42.175 28.1251 42.181C28.5331 42.181 28.8571 42.013 29.0971 41.677C29.1211 41.641 29.1511 41.623 29.1871 41.623C29.2111 41.623 29.2321 41.632 29.2501 41.65L29.8081 42.109C29.8621 42.151 29.8711 42.199 29.8351 42.253C29.6491 42.517 29.4001 42.721 29.0881 42.865C28.7821 43.009 28.4401 43.081 28.0621 43.081C27.5941 43.081 27.1951 42.976 26.8651 42.766C26.5411 42.556 26.3041 42.262 26.1541 41.884C26.0161 41.56 25.9471 41.11 25.9471 40.534C25.9471 40.186 25.9831 39.904 26.0551 39.688C26.1751 39.268 26.4001 38.938 26.7301 38.698C27.0661 38.452 27.4681 38.329 27.9361 38.329C29.1181 38.329 29.7841 38.947 29.9341 40.183ZM27.9361 39.229C27.7141 39.229 27.5281 39.286 27.3781 39.4C27.2341 39.508 27.1321 39.661 27.0721 39.859C27.0361 39.961 27.0121 40.093 27.0001 40.255C26.9881 40.285 27.0001 40.3 27.0361 40.3H28.8631C28.8931 40.3 28.9081 40.285 28.9081 40.255C28.8961 40.105 28.8781 39.991 28.8541 39.913C28.8001 39.697 28.6921 39.529 28.5301 39.409C28.3741 39.289 28.1761 39.229 27.9361 39.229ZM33.2753 39.139C33.2753 39.169 33.2633 39.196 33.2393 39.22C33.2213 39.238 33.1973 39.247 33.1673 39.247H32.2493C32.2193 39.247 32.2043 39.262 32.2043 39.292V41.461C32.2043 41.689 32.2523 41.854 32.3483 41.956C32.4503 42.058 32.6093 42.109 32.8253 42.109H33.0953C33.1253 42.109 33.1493 42.121 33.1673 42.145C33.1913 42.163 33.2033 42.187 33.2033 42.217V42.892C33.2033 42.958 33.1673 42.997 33.0953 43.009L32.6273 43.018C32.1533 43.018 31.7993 42.937 31.5653 42.775C31.3313 42.613 31.2113 42.307 31.2053 41.857V39.292C31.2053 39.262 31.1903 39.247 31.1603 39.247H30.6473C30.6173 39.247 30.5903 39.238 30.5663 39.22C30.5483 39.196 30.5393 39.169 30.5393 39.139V38.509C30.5393 38.479 30.5483 38.455 30.5663 38.437C30.5903 38.413 30.6173 38.401 30.6473 38.401H31.1603C31.1903 38.401 31.2053 38.386 31.2053 38.356V37.303C31.2053 37.273 31.2143 37.249 31.2323 37.231C31.2563 37.207 31.2833 37.195 31.3133 37.195H32.0963C32.1263 37.195 32.1503 37.207 32.1683 37.231C32.1923 37.249 32.2043 37.273 32.2043 37.303V38.356C32.2043 38.386 32.2193 38.401 32.2493 38.401H33.1673C33.1973 38.401 33.2213 38.413 33.2393 38.437C33.2633 38.455 33.2753 38.479 33.2753 38.509V39.139ZM36.6415 39.139C36.6415 39.169 36.6295 39.196 36.6055 39.22C36.5875 39.238 36.5635 39.247 36.5335 39.247H35.6155C35.5855 39.247 35.5705 39.262 35.5705 39.292V41.461C35.5705 41.689 35.6185 41.854 35.7145 41.956C35.8165 42.058 35.9755 42.109 36.1915 42.109H36.4615C36.4915 42.109 36.5155 42.121 36.5335 42.145C36.5575 42.163 36.5695 42.187 36.5695 42.217V42.892C36.5695 42.958 36.5335 42.997 36.4615 43.009L35.9935 43.018C35.5195 43.018 35.1655 42.937 34.9315 42.775C34.6975 42.613 34.5775 42.307 34.5715 41.857V39.292C34.5715 39.262 34.5565 39.247 34.5265 39.247H34.0135C33.9835 39.247 33.9565 39.238 33.9325 39.22C33.9145 39.196 33.9055 39.169 33.9055 39.139V38.509C33.9055 38.479 33.9145 38.455 33.9325 38.437C33.9565 38.413 33.9835 38.401 34.0135 38.401H34.5265C34.5565 38.401 34.5715 38.386 34.5715 38.356V37.303C34.5715 37.273 34.5805 37.249 34.5985 37.231C34.6225 37.207 34.6495 37.195 34.6795 37.195H35.4625C35.4925 37.195 35.5165 37.207 35.5345 37.231C35.5585 37.249 35.5705 37.273 35.5705 37.303V38.356C35.5705 38.386 35.5855 38.401 35.6155 38.401H36.5335C36.5635 38.401 36.5875 38.413 36.6055 38.437C36.6295 38.455 36.6415 38.479 36.6415 38.509V39.139ZM38.1627 37.771C37.9767 37.771 37.8237 37.711 37.7037 37.591C37.5837 37.471 37.5237 37.318 37.5237 37.132C37.5237 36.946 37.5837 36.793 37.7037 36.673C37.8237 36.553 37.9767 36.493 38.1627 36.493C38.3487 36.493 38.5017 36.553 38.6217 36.673C38.7417 36.793 38.8017 36.946 38.8017 37.132C38.8017 37.318 38.7417 37.471 38.6217 37.591C38.5017 37.711 38.3487 37.771 38.1627 37.771ZM37.7307 43C37.7007 43 37.6737 42.991 37.6497 42.973C37.6317 42.949 37.6227 42.922 37.6227 42.892V38.5C37.6227 38.47 37.6317 38.446 37.6497 38.428C37.6737 38.404 37.7007 38.392 37.7307 38.392H38.5587C38.5887 38.392 38.6127 38.404 38.6307 38.428C38.6547 38.446 38.6667 38.47 38.6667 38.5V42.892C38.6667 42.922 38.6547 42.949 38.6307 42.973C38.6127 42.991 38.5887 43 38.5587 43H37.7307ZM42.0677 38.329C42.5537 38.329 42.9407 38.473 43.2287 38.761C43.5227 39.049 43.6697 39.442 43.6697 39.94V42.892C43.6697 42.922 43.6577 42.949 43.6337 42.973C43.6157 42.991 43.5917 43 43.5617 43H42.7337C42.7037 43 42.6767 42.991 42.6527 42.973C42.6347 42.949 42.6257 42.922 42.6257 42.892V40.156C42.6257 39.88 42.5477 39.658 42.3917 39.49C42.2357 39.316 42.0287 39.229 41.7707 39.229C41.5127 39.229 41.3027 39.313 41.1407 39.481C40.9847 39.649 40.9067 39.871 40.9067 40.147V42.892C40.9067 42.922 40.8947 42.949 40.8707 42.973C40.8527 42.991 40.8287 43 40.7987 43H39.9707C39.9407 43 39.9137 42.991 39.8897 42.973C39.8717 42.949 39.8627 42.922 39.8627 42.892V38.509C39.8627 38.479 39.8717 38.455 39.8897 38.437C39.9137 38.413 39.9407 38.401 39.9707 38.401H40.7987C40.8287 38.401 40.8527 38.413 40.8707 38.437C40.8947 38.455 40.9067 38.479 40.9067 38.509V38.797C40.9067 38.815 40.9127 38.827 40.9247 38.833C40.9367 38.839 40.9457 38.833 40.9517 38.815C41.1977 38.491 41.5697 38.329 42.0677 38.329ZM47.5752 38.509C47.5752 38.479 47.5842 38.455 47.6022 38.437C47.6262 38.413 47.6532 38.401 47.6832 38.401H48.5112C48.5412 38.401 48.5652 38.413 48.5832 38.437C48.6072 38.455 48.6192 38.479 48.6192 38.509V42.694C48.6192 43.444 48.4032 43.978 47.9712 44.296C47.5452 44.62 46.9842 44.782 46.2882 44.782C46.1022 44.782 45.9192 44.773 45.7392 44.755C45.6732 44.749 45.6402 44.71 45.6402 44.638L45.6672 43.9C45.6672 43.834 45.7092 43.801 45.7932 43.801C45.9672 43.819 46.1232 43.828 46.2612 43.828C46.7112 43.828 47.0412 43.738 47.2512 43.558C47.4672 43.384 47.5752 43.087 47.5752 42.667V42.595C47.5752 42.577 47.5692 42.568 47.5572 42.568C47.5452 42.562 47.5332 42.565 47.5212 42.577C47.2752 42.841 46.9272 42.973 46.4772 42.973C46.0872 42.973 45.7302 42.874 45.4062 42.676C45.0822 42.478 44.8572 42.175 44.7312 41.767C44.6532 41.485 44.6142 41.122 44.6142 40.678C44.6142 40.18 44.6622 39.799 44.7582 39.535C44.8782 39.169 45.0852 38.878 45.3792 38.662C45.6732 38.44 46.0182 38.329 46.4142 38.329C46.8882 38.329 47.2572 38.467 47.5212 38.743C47.5332 38.761 47.5452 38.767 47.5572 38.761C47.5692 38.755 47.5752 38.743 47.5752 38.725V38.509ZM47.5122 41.47C47.5362 41.38 47.5512 41.284 47.5572 41.182C47.5692 41.074 47.5752 40.903 47.5752 40.669C47.5752 40.441 47.5692 40.279 47.5572 40.183C47.5512 40.081 47.5332 39.982 47.5032 39.886C47.4552 39.688 47.3562 39.529 47.2062 39.409C47.0622 39.289 46.8762 39.229 46.6482 39.229C46.4322 39.229 46.2492 39.289 46.0992 39.409C45.9492 39.529 45.8412 39.688 45.7752 39.886C45.7032 40.054 45.6672 40.318 45.6672 40.678C45.6672 41.05 45.6972 41.311 45.7572 41.461C45.8172 41.653 45.9252 41.812 46.0812 41.938C46.2432 42.058 46.4352 42.118 46.6572 42.118C46.8912 42.118 47.0802 42.058 47.2242 41.938C47.3682 41.818 47.4642 41.662 47.5122 41.47ZM51.3725 43.054C50.9945 43.054 50.6615 43 50.3735 42.892C50.0915 42.778 49.8725 42.625 49.7165 42.433C49.5605 42.235 49.4825 42.016 49.4825 41.776V41.695C49.4825 41.665 49.4915 41.641 49.5095 41.623C49.5335 41.599 49.5605 41.587 49.5905 41.587H50.3825C50.4125 41.587 50.4365 41.599 50.4545 41.623C50.4785 41.641 50.4905 41.665 50.4905 41.695V41.713C50.4905 41.863 50.5715 41.995 50.7335 42.109C50.9015 42.217 51.1115 42.271 51.3635 42.271C51.6035 42.271 51.7985 42.223 51.9485 42.127C52.0985 42.025 52.1735 41.899 52.1735 41.749C52.1735 41.611 52.1105 41.509 51.9845 41.443C51.8645 41.371 51.6665 41.296 51.3905 41.218L51.0485 41.11C50.7425 41.02 50.4845 40.924 50.2745 40.822C50.0645 40.72 49.8875 40.582 49.7435 40.408C49.5995 40.228 49.5275 40 49.5275 39.724C49.5275 39.304 49.6925 38.971 50.0225 38.725C50.3525 38.473 50.7875 38.347 51.3275 38.347C51.6935 38.347 52.0145 38.407 52.2905 38.527C52.5665 38.641 52.7795 38.803 52.9295 39.013C53.0795 39.217 53.1545 39.451 53.1545 39.715C53.1545 39.745 53.1425 39.772 53.1185 39.796C53.1005 39.814 53.0765 39.823 53.0465 39.823H52.2815C52.2515 39.823 52.2245 39.814 52.2005 39.796C52.1825 39.772 52.1735 39.745 52.1735 39.715C52.1735 39.559 52.0955 39.43 51.9395 39.328C51.7895 39.22 51.5825 39.166 51.3185 39.166C51.0845 39.166 50.8925 39.211 50.7425 39.301C50.5985 39.385 50.5265 39.505 50.5265 39.661C50.5265 39.805 50.5955 39.916 50.7335 39.994C50.8775 40.066 51.1145 40.147 51.4445 40.237L51.6425 40.291C51.9605 40.387 52.2275 40.486 52.4435 40.588C52.6595 40.684 52.8425 40.822 52.9925 41.002C53.1425 41.176 53.2175 41.404 53.2175 41.686C53.2175 42.112 53.0495 42.448 52.7135 42.694C52.3775 42.934 51.9305 43.054 51.3725 43.054Z" fill="#393C45"/>
<defs>
<filter id="filter0_d_41_150" x="0.785156" y="0" width="64.8945" height="62" filterUnits="userSpaceOnUse" color-interpolation-filters="sRGB">
<feFlood flood-opacity="0" result="BackgroundImageFix"/>
<feColorMatrix in="SourceAlpha" type="matrix" values="0 0 0 0 0 0 0 0 0 0 0 0 0 0 0 0 0 0 127 0" result="hardAlpha"/>
<feOffset dy="4"/>
<feGaussianBlur stdDeviation="2"/>
<feComposite in2="hardAlpha" operator="out"/>
<feColorMatrix type="matrix" values="0 0 0 0 0.223529 0 0 0 0 0.235294 0 0 0 0 0.270588 0 0 0 0.32 0"/>
<feBlend mode="normal" in2="BackgroundImageFix" result="effect1_dropShadow_41_150"/>
<feBlend mode="normal" in="SourceGraphic" in2="effect1_dropShadow_41_150" result="shape"/>
</filter>
</defs>
</svg>
